PathFileType	4	(X/Y/Z)	c:\Git\powerlifing_model_clean\simulations\HC835B\Session1\HC835B_CUT_0002\marker_experimental.trc
DataRate	CameraRate	NumFrames	NumMarkers	Units	OrigDataRate	OrigDataStartFrame	OrigNumFrames
240.000000	240.000000	5	38	mm	240.000000	51	82
Frame#	Time	RPSI			LPSI			RASI			LASI			RTH1			RTH2			RTH3			RTH4			RSK1			RSK2			RSK3			RSK4			RCAL1			RCAL2			RCAL3			RST			RPT			RTN			RFMB			RSMB			RVMB			RFMH			RSMH			RVMH			RPM			LTH1			LTH2			LTH3			LTH4			LSK1			LSK2			LSK3			LSK4			LCAL1			LCAL2			LCAL3			LFMH			LVMH			
		X1	Y1	Z1	X2	Y2	Z2	X3	Y3	Z3	X4	Y4	Z4	X5	Y5	Z5	X6	Y6	Z6	X7	Y7	Z7	X8	Y8	Z8	X9	Y9	Z9	X10	Y10	Z10	X11	Y11	Z11	X12	Y12	Z12	X13	Y13	Z13	X14	Y14	Z14	X15	Y15	Z15	X16	Y16	Z16	X17	Y17	Z17	X18	Y18	Z18	X19	Y19	Z19	X20	Y20	Z20	X21	Y21	Z21	X22	Y22	Z22	X23	Y23	Z23	X24	Y24	Z24	X25	Y25	Z25	X26	Y26	Z26	X27	Y27	Z27	X28	Y28	Z28	X29	Y29	Z29	X30	Y30	Z30	X31	Y31	Z31	X32	Y32	Z32	X33	Y33	Z33	X34	Y34	Z34	X35	Y35	Z35	X36	Y36	Z36	X37	Y37	Z37	X38	Y38	Z38	

52	0.2125	-86.7348098754883	1063.573364257813	-645.1447753906251	-185.2733917236328	1035.236694335938	-600.4216308593751	-118.9894027709961	1015.407409667969	-865.1040649414065	-330.7294616699219	943.3460083007815	-738.8026123046876	61.50815963745119	784.7928466796877	-800.4896240234377	35.44035339355469	759.9859008789064	-849.1068115234377	68.79910278320314	700.9956054687501	-809.8084106445315	35.47922897338868	674.5810546875001	-850.1287841796877	231.8766784667969	327.6271667480469	-620.4786987304689	218.5172882080079	285.5685729980469	-663.9389648437501	245.7879943847657	271.2541809082032	-611.2329711914064	223.8778686523438	229.4638214111329	-648.1300048828126	289.8863525390626	145.629135131836	-484.910125732422	260.7807922363282	109.7942810058594	-468.1333618164064	321.0480651855469	108.3972625732422	-492.329315185547	217.1777954101563	103.6445083618164	-524.8634643554689	319.5264892578126	101.8599090576172	-556.1510620117189	207.2910308837891	103.377311706543	-585.1682128906251	202.711166381836	81.67922973632814	-613.2744140625001	242.521224975586	98.8215026855469	-643.9511718750001	315.5775146484376	62.3143997192383	-592.3460083007814	185.9703521728516	47.32101058959962	-652.3939819335939	230.0515594482422	50.63684463500978	-689.6049804687501	302.5259094238282	33.00608825683594	-663.7367553710939	193.1294708251954	37.21934509277344	-733.2723388671876	-361.0206604003907	724.6444091796876	-794.3135375976565	-383.2157897949219	750.2627563476564	-840.1574707031252	-375.6369018554688	673.8547363281251	-869.280456542969	-388.6182250976564	709.8896484375001	-916.4404296875002	-175.9552307128907	431.121063232422	-798.4163208007815	-176.0137786865235	382.1131286621094	-819.1509399414065	-144.0738525390625	387.2151489257814	-781.2150878906252	-132.1717681884766	342.5292968750001	-814.556579589844	-0.9848632812500002	357.2599792480469	-690.3458862304689	-6.358813285827638	322.3015747070313	-658.0357666015626	42.42232894897462	337.1676025390626	-687.4677124023439	5.925832271575929	193.3504180908204	-851.5224609375002	-58.55744552612306	167.9371795654297	-762.1824340820314	
53	0.2166666666666667	-93.74255371093751	1066.269653320313	-664.1248779296876	-192.8113250732422	1037.955810546875	-617.8522338867189	-128.655258178711	1016.084838867188	-882.1577148437502	-339.0210266113282	946.2991943359377	-755.6891479492189	54.47653198242189	787.659362792969	-813.3440551757815	28.01538658142091	761.3946533203126	-860.9795532226565	62.5605812072754	703.7252197265626	-820.7459716796877	28.91207695007325	676.0371093750001	-859.9063110351565	229.9782257080079	333.2803649902344	-625.5145874023439	216.9012298583985	291.0772399902344	-668.9711914062501	244.1540985107422	277.0553283691407	-616.1807861328126	222.7601165771485	234.9902343750001	-653.0513305664064	288.4619750976563	152.9268646240235	-489.7319946289064	259.1451416015626	117.5811462402344	-471.9715576171876	319.4996032714844	115.4366683959961	-495.810272216797	216.0543518066407	109.8734130859375	-529.0725708007814	318.4797363281251	106.6052703857422	-559.2452392578126	206.8177947998047	107.9084396362305	-589.5110473632814	202.443344116211	84.22903442382814	-616.0066528320314	242.4182586669922	99.97629547119143	-647.2926025390626	314.7734985351563	65.52101135253908	-594.0181884765626	185.6198883056641	47.53579330444337	-652.8140258789064	229.5908966064454	49.86806488037111	-690.6914062500001	302.6045532226563	33.39052963256837	-664.0256958007814	193.0704040527344	37.41259384155274	-733.2780761718751	-370.4180603027344	725.4317626953126	-812.7993774414065	-392.8409423828126	754.7864379882814	-856.8248291015627	-385.4556274414064	679.0946655273439	-886.7279052734377	-398.7195129394532	715.2616577148439	-933.5347900390627	-186.9903106689453	426.0498352050782	-824.9927368164065	-188.2168121337891	377.7992858886719	-847.9896240234377	-155.7874450683594	380.9707031250001	-809.8846435546877	-145.6862030029297	337.3080749511719	-845.1539306640627	-11.82504653930664	344.2342529296876	-722.5847167968751	-17.45452117919922	308.1684265136719	-691.5470581054689	31.11000442504884	323.0751037597657	-721.1881713867189	-11.46764659881592	186.81689453125	-890.2640380859377	-75.14516448974611	159.0103912353516	-800.8672485351565	
54	0.2208333333333333	-101.3561325073242	1069.130126953125	-682.9252929687501	-200.6359558105469	1040.621337890625	-635.2302246093751	-138.6070556640625	1016.907287597656	-899.1802368164065	-347.3785705566407	949.2701416015627	-772.5784912109377	47.25734329223634	790.7678222656252	-826.6352539062502	20.29024124145508	763.0833129882814	-873.1871337890627	56.02523803710939	706.7364501953126	-832.2122802734377	21.98143196105957	677.7471923828126	-869.9815063476565	227.9210968017579	339.3336486816407	-630.9597778320314	215.3995056152344	297.1083068847657	-674.4681396484376	242.5773925781251	283.2209777832032	-621.5592041015626	221.7241821289063	241.0407714843751	-658.6181030273439	286.4856872558594	160.4395751953125	-495.1441040039064	257.0853881835938	125.769401550293	-476.4100952148439	317.4972839355469	122.8204879760742	-499.7232055664064	214.8675231933594	116.2297286987305	-534.1646118164064	317.3173217773438	111.5266723632813	-562.7760620117189	206.495101928711	112.4528350830078	-594.2526855468751	202.0079040527344	87.05064392089845	-619.2832641601564	242.3580322265626	101.3424148559571	-651.4213256835939	313.6837463378907	68.8385696411133	-595.9262084960939	185.1815490722657	47.68945312500001	-653.3929443359376	229.1896362304688	49.21627426147462	-691.7495117187501	302.7858276367188	33.79982376098634	-664.2385253906251	192.9705352783204	37.57407760620118	-733.2491455078126	-379.6250000000001	726.6082153320314	-830.946472167969	-402.2528076171876	758.7030029296876	-873.2941894531252	-394.9194335937501	683.2715454101564	-904.4378662109377	-408.8215942382814	720.3779296875001	-950.575622558594	-198.0501403808594	420.8511352539064	-851.6351318359377	-200.7253875732422	373.4255371093751	-876.3131103515627	-167.4714508056641	374.3338012695313	-838.9820556640627	-159.324462890625	332.2048034667969	-875.626647949219	-22.9200439453125	331.3524169921876	-755.0930175781251	-29.12773132324219	294.7670288085938	-724.8513793945314	19.52569389343262	309.0949096679688	-755.1461791992189	-29.04700088500977	180.7588958740235	-929.1239013671877	-91.68079376220705	151.0370025634766	-839.7058715820315	
55	0.225	-109.5948333740235	1072.185424804688	-701.5718383789064	-208.7063140869141	1043.182250976563	-652.5731201171876	-148.6225891113282	1017.151977539063	-915.5008544921877	-355.9759826660157	952.3306274414065	-789.917419433594	39.92752838134766	794.0899047851565	-840.3687744140627	12.33991432189942	764.9852294921876	-885.7196044921877	49.6079788208008	710.0615844726564	-844.1548461914065	14.86815261840821	679.8238525390626	-880.393249511719	225.7009887695313	345.7010803222657	-636.7451171875001	213.9468383789063	303.5605468750001	-680.4982910156251	240.8261413574219	289.7691040039063	-627.4888305664064	220.8303680419922	247.4877471923829	-664.9169311523439	286.2188415527344	169.2535095214844	-501.4328613281251	254.5066223144532	134.2429962158203	-481.597381591797	314.9358825683594	130.4629516601563	-504.1546325683595	213.7895050048829	122.6626739501953	-539.9121704101564	315.7036743164063	116.5865631103516	-566.5614013671876	206.1511383056641	116.8295516967774	-599.7416381835939	201.4110107421876	89.87896728515626	-623.1607666015626	242.0058593750001	101.9975662231446	-655.2974853515626	312.5159912109376	72.38047790527345	-597.9732666015626	184.6625518798828	48.1988983154297	-654.1655883789064	228.4714355468751	48.76601409912111	-692.9031982421876	302.8571166992188	34.22888946533204	-664.4044189453126	193.0610046386719	37.87297439575196	-733.0641479492189	-388.6461791992189	728.1082153320314	-848.7757568359377	-411.443572998047	762.6226806640626	-889.7608642578127	-404.4142456054689	687.3627929687501	-921.8816528320315	-418.9239501953126	724.7903442382814	-967.426940917969	-209.1127166748047	415.3938293457032	-878.2878417968752	-213.2262573242188	369.1920471191407	-904.6270751953127	-179.3517303466797	367.8845520019532	-867.8665161132815	-172.4587097167969	326.9675903320313	-906.3364868164065	-34.58887481689454	318.3766784667969	-787.8697509765627	-40.61830520629884	280.7827758789063	-759.4526367187501	7.753483772277834	295.2492675781251	-790.5583496093752	-46.85141754150391	175.0738220214844	-968.0625610351565	-108.4271316528321	142.9839935302735	-878.7755126953127	
56	0.2291666666666667	-118.4824600219727	1075.460327148438	-720.0837402343751	-216.9821166992188	1045.686279296875	-669.9201660156251	-159.1506652832032	1018.215759277344	-932.4301757812502	-363.9897766113282	955.0141601562502	-807.390075683594	32.48736572265626	797.5979003906252	-854.4485473632815	4.312732696533204	767.1424560546876	-898.5476684570315	42.99768829345704	713.6092529296876	-856.4319458007815	7.605059623718263	682.1737670898439	-891.0715332031252	223.1532592773438	352.3601379394532	-643.0054931640626	212.5757141113282	310.3801269531251	-687.1909790039064	239.0555419921876	296.5967712402344	-633.9749755859376	219.9599609375001	254.1833038330079	-671.8890380859376	282.9473266601563	177.4185028076172	-508.1786193847657	251.2732391357422	142.8359832763672	-487.519256591797	312.2063903808594	138.6007385253907	-509.4297180175782	212.6825561523438	128.648422241211	-546.5953979492189	313.7889404296876	121.8075027465821	-570.7730102539064	205.7242431640626	120.8993301391602	-605.8008422851564	200.6363525390626	92.73480224609376	-627.6948852539064	241.6675262451172	102.9529266357422	-660.1575317382814	310.8558654785157	76.04201507568361	-600.2907714843751	183.9401245117188	48.31385040283205	-654.9337768554689	227.9467773437501	48.72473907470705	-693.7536010742189	302.9040832519532	34.80820083618165	-664.4780883789064	193.2741851806641	38.24747467041016	-732.9970092773439	-397.486297607422	729.8662109375001	-866.3079833984377	-420.7787475585939	765.3516235351564	-906.5051879882815	-413.8211975097657	690.9915771484376	-939.147888183594	-429.0584411621095	728.9472045898439	-984.0630493164065	-220.1643676757813	409.8086547851564	-904.939880371094	-225.7766265869141	364.7053527832032	-932.955017089844	-191.312255859375	361.2990722656251	-896.8506469726565	-186.2806243896485	321.2244873046876	-937.381774902344	-46.17023849487305	305.4481201171876	-821.4873046875002	-52.38287353515626	266.8448181152344	-794.5059814453127	-4.370191574096681	281.5787963867188	-825.5630493164065	-64.91660308837892	169.8626251220703	-1007.070251464844	-125.401123046875	135.4309692382813	-917.7917480468752	
